<svg xmlns="http://www.w3.org/2000/svg" viewBox="0 0 416.812 113">
  <path data-name="logo-text" d="M31.431 47.707A16.881 16.881 0 0148.59 64.986c0 10.68-7.919 17.4-17.159 17.4-9.36 0-16.8-7.079-16.8-17.4.001-10.679 7.44-17.279 16.8-17.279zM49.55 10.748v32.759c-3.48-6.12-13.2-9.48-19.439-9.48-17.279 0-30.119 10.56-30.119 30.959 0 19.439 13.08 30.959 30.479 30.959 7.2 0 14.519-2.4 19.079-9.48l.96 8.16h13.68V10.748H49.55zm74.88 32.879c-3.36-5.88-10.919-9.6-18.839-9.6-17.279-.12-30.839 10.56-30.839 30.959 0 20.759 12.96 31.559 30.479 31.439 6.6-.12 15.839-3.48 19.2-10.44l.72 8.64h13.8V35.467h-14.04zm-17.519 3.48c23.039 0 23.039 35.878 0 35.878-9.72 0-17.519-6.719-17.519-18s7.799-17.878 17.519-17.878zm92.279-5.52c-6.839-6-13.8-7.8-23.039-7.8-10.8 0-24.959 4.8-24.959 18.48 0 13.439 13.32 17.519 24.479 18.359 8.4.48 11.76 2.16 11.76 6.24 0 4.32-5.16 7.2-10.68 7.079-6.6-.12-16.2-3.6-20.4-8.279l-7.2 10.439c8.64 9 18 10.56 27.359 10.56 16.92 0 25.439-9 25.439-19.439 0-15.72-14.159-18.24-25.319-18.96-7.56-.48-11.039-2.639-11.039-6.479 0-3.72 3.839-5.88 10.8-5.88 5.64 0 10.44 1.32 14.64 5.28zm13.2-30.959v84h14.64V64.386c0-8.879 6-16.2 14.639-16.2 7.8 0 13.439 4.56 13.439 15.359v31.079h14.64v-31.2c0-17.4-7.44-28.8-24.239-28.8-6.72 0-13.2 2.04-18.479 8.88V10.628h-14.64z" fill="currentColor"/>
  <path data-name="logo-big-dash" d="M333.345 1.162l-28.371 28.37a4.012 4.012 0 000 5.674l76.6 76.6a4.012 4.012 0 005.674 0l28.37-28.371a4.012 4.012 0 000-5.674l-76.6-76.6a4.012 4.012 0 00-5.673.001z" fill="currentColor"/>
  <path data-name="logo-small-dash" d="M381.575 1.162l-6.384 6.383a4.012 4.012 0 000 5.674l28.371 28.371a4.012 4.012 0 005.674 0l6.383-6.384a4.012 4.012 0 000-5.674l-28.37-28.37a4.012 4.012 0 00-5.674 0zm-70.218 70.217l-6.383 6.383a4.012 4.012 0 000 5.674l28.371 28.371a4.012 4.012 0 005.674 0l6.383-6.383a4.013 4.013 0 000-5.675l-28.37-28.37a4.013 4.013 0 00-5.675 0z" fill="currentColor"/>
</svg>
