<svg xmlns="http://www.w3.org/2000/svg" viewBox="0 0 114 113">
  <path data-name="logo-big-dash" d="M30.345 1.162L1.974 29.532a4.011 4.011 0 000 5.674l76.6 76.6a4.012 4.012 0 005.674 0l28.37-28.371a4.013 4.013 0 000-5.674l-76.6-76.6a4.012 4.012 0 00-5.673.001z" fill="currentColor"/>
  <path data-name="logo-small-dash" d="M78.575 1.162l-6.384 6.383a4.01 4.01 0 000 5.674l28.371 28.371a4.015 4.015 0 005.674 0l6.383-6.384a4.013 4.013 0 000-5.674l-28.37-28.37a4.012 4.012 0 00-5.674 0zM8.357 71.379l-6.383 6.383a4.011 4.011 0 000 5.674l28.371 28.371a4.013 4.013 0 005.674 0l6.383-6.383a4.014 4.014 0 000-5.675l-28.37-28.37a4.013 4.013 0 00-5.675 0z" fill="currentColor"/>
</svg>
